# xmcd
#
# Track frame offsets: 
#        150
#        27738
#        41883
#        60450
#        75098
#        89421
#        108199
#        134466
#        146356
#        167381
#        186261
#        189739
#        202529
#        224682
#        252841
#
# Disc length: 3542 seconds
#
# Revision: 1
# Processed by: cddbd v1.5.2PL0 Copyright (c) Steve Scherf et al.
# Submitted via: ExactAudioCopy v0.95b3
#
DISCID=cc0dd40f
DTITLE=Root - Hell Symphony [IHRCD 055]
DYEAR=1991
DGENRE=Black Metal
TTITLE0=Belzebub
TTITLE1=Belial
TTITLE2=Lucifer
TTITLE3=Abaddon
TTITLE4=Asmodeus
TTITLE5=Satan
TTITLE6=Leviathan
TTITLE7=Astaroth
TTITLE8=Loki
TTITLE9=The Prayers
TTITLE10=The Oath
TTITLE11=Satan's March
TTITLE12=Lucifer (Live)
TTITLE13=Leviathan (Live)
TTITLE14=Song For Satan (Live)
EXTD=
EXTT0=
EXTT1=
EXTT2=
EXTT3=
EXTT4=
EXTT5=
EXTT6=
EXTT7=
EXTT8=
EXTT9=
EXTT10=
EXTT11=
EXTT12=
EXTT13=
EXTT14=
PLAYORDER=
